<svg width="53" height="208" viewBox="0 0 53 208" fill="none" xmlns="http://www.w3.org/2000/svg">
<rect x="1.5" y="64.5" width="50" height="89" rx="25" stroke="white" stroke-width="3"/>
<line x1="26.5" y1="65" x2="26.5" y2="94" stroke="white" stroke-width="3"/>
<line x1="27" y1="161" x2="27" y2="208" stroke="white" stroke-width="2"/>
<path d="M27.2173 9.11009C27.5611 9.07599 27.8281 8.92969 28.0185 8.67116C28.2088 8.41264 28.304 8.06179 28.304 7.61861C28.304 7.31747 28.2614 7.06321 28.1761 6.85582C28.0938 6.64844 27.9787 6.48935 27.831 6.37855C27.6832 6.2706 27.5156 6.21662 27.3281 6.21662C27.1719 6.21094 27.0355 6.24361 26.919 6.31463C26.8026 6.38849 26.7017 6.48935 26.6165 6.61719C26.5341 6.74503 26.4616 6.89276 26.3991 7.06037C26.3395 7.22798 26.2884 7.40696 26.2457 7.5973L26.0582 8.38139C25.973 8.76207 25.8594 9.11151 25.7173 9.42969C25.5753 9.74787 25.4006 10.0234 25.1932 10.2564C24.9858 10.4893 24.7415 10.6697 24.4602 10.7976C24.179 10.9283 23.8565 10.995 23.4929 10.9979C22.9588 10.995 22.4957 10.8587 22.1037 10.5888C21.7145 10.3217 21.4119 9.93537 21.196 9.42969C20.983 8.92685 20.8764 8.32031 20.8764 7.61009C20.8764 6.90554 20.9844 6.2919 21.2003 5.76918C21.4162 5.24929 21.7358 4.84304 22.1591 4.55043C22.5852 4.26065 23.1122 4.10866 23.7401 4.09446V5.87997C23.4474 5.89986 23.2031 5.98366 23.0071 6.13139C22.8139 6.28196 22.6676 6.48224 22.5682 6.73224C22.4716 6.98509 22.4233 7.2706 22.4233 7.58878C22.4233 7.90128 22.4688 8.17259 22.5597 8.4027C22.6506 8.63565 22.777 8.81605 22.9389 8.94389C23.1009 9.07173 23.2869 9.13565 23.4972 9.13565C23.6932 9.13565 23.858 9.07741 23.9915 8.96094C24.125 8.8473 24.2386 8.67969 24.3324 8.4581C24.4261 8.23935 24.5114 7.97088 24.5881 7.6527L24.8267 6.70241C25.0057 5.96662 25.2855 5.38565 25.6662 4.95952C26.0469 4.53338 26.5597 4.32173 27.2045 4.32457C27.733 4.32173 28.1946 4.46236 28.5895 4.74645C28.9844 5.03338 29.2926 5.42685 29.5142 5.92685C29.7358 6.42685 29.8466 6.99503 29.8466 7.63139C29.8466 8.27912 29.7358 8.84446 29.5142 9.32741C29.2926 9.81321 28.9844 10.1911 28.5895 10.4609C28.1946 10.7308 27.7372 10.87 27.2173 10.8786V9.11009ZM26.6719 19.9393V18.0728C26.9134 18.0387 27.1278 17.9691 27.3153 17.864C27.5057 17.7589 27.6676 17.6239 27.8011 17.4592C27.9347 17.2944 28.0369 17.104 28.108 16.8881C28.179 16.6751 28.2145 16.4435 28.2145 16.1935C28.2145 15.7418 28.1023 15.3484 27.8778 15.0131C27.6563 14.6779 27.3324 14.418 26.9062 14.2333C26.483 14.0487 25.9688 13.9563 25.3636 13.9563C24.7415 13.9563 24.2188 14.0487 23.7955 14.2333C23.3722 14.4208 23.0526 14.6822 22.8366 15.0174C22.6207 15.3526 22.5128 15.7404 22.5128 16.1808C22.5128 16.4279 22.5455 16.6566 22.6108 16.8668C22.6761 17.0799 22.7713 17.2688 22.8963 17.4336C23.0241 17.5984 23.179 17.7347 23.3608 17.8427C23.5426 17.9535 23.75 18.0302 23.983 18.0728L23.9744 19.9393C23.5739 19.891 23.1875 19.7702 22.8153 19.5771C22.446 19.3867 22.1151 19.1296 21.8224 18.8058C21.5327 18.4847 21.3026 18.1012 21.1321 17.6552C20.9645 17.212 20.8807 16.7106 20.8807 16.1509C20.8807 15.3725 21.0568 14.6765 21.4091 14.0629C21.7614 13.4521 22.2713 12.9691 22.9389 12.614C23.6065 12.2617 24.4148 12.0856 25.3636 12.0856C26.3153 12.0856 27.125 12.2646 27.7926 12.6225C28.4602 12.9805 28.9688 13.4663 29.3182 14.0799C29.6705 14.6935 29.8466 15.3839 29.8466 16.1509C29.8466 16.6566 29.7756 17.1254 29.6335 17.5572C29.4915 17.9918 29.2841 18.3768 29.0114 18.712C28.7415 19.0472 28.4105 19.32 28.0185 19.5302C27.6264 19.7433 27.1776 19.8796 26.6719 19.9393ZM21 21.2624L29.7273 21.2624L29.7273 24.7056C29.7273 25.3647 29.6094 25.9272 29.3736 26.3931C29.1406 26.8619 28.8097 27.2184 28.3807 27.4627C27.9545 27.7099 27.4531 27.8335 26.8764 27.8335C26.2969 27.8335 25.7983 27.7085 25.3807 27.4585C24.9659 27.2085 24.6477 26.8462 24.4261 26.3718C24.2045 25.9002 24.0937 25.3292 24.0937 24.6587L24.0937 22.3533H25.5767L25.5767 24.3604C25.5767 24.7127 25.625 25.0053 25.7216 25.2383C25.8182 25.4712 25.9631 25.6445 26.1562 25.7582C26.3494 25.8746 26.5895 25.9329 26.8764 25.9329C27.1662 25.9329 27.4105 25.8746 27.6094 25.7582C27.8082 25.6445 27.9588 25.4698 28.0611 25.234C28.1662 25.0011 28.2187 24.707 28.2187 24.3519L28.2187 23.1076H21V21.2624ZM24.9716 25.9755L21 28.1445V26.1076L24.9716 23.9854L24.9716 25.9755ZM25.3636 37.1573C24.4119 37.1573 23.6023 36.9769 22.9347 36.6161C22.267 36.2582 21.7571 35.7695 21.4048 35.1502C21.0554 34.5337 20.8807 33.8406 20.8807 33.0707C20.8807 32.2951 21.0568 31.5991 21.4091 30.9826C21.7614 30.3661 22.2713 29.8789 22.9389 29.521C23.6065 29.163 24.4148 28.984 25.3636 28.984C26.3153 28.984 27.125 29.163 27.7926 29.521C28.4602 29.8789 28.9688 30.3661 29.3182 30.9826C29.6705 31.5991 29.8466 32.2951 29.8466 33.0707C29.8466 33.8406 29.6705 34.5337 29.3182 35.1502C28.9688 35.7695 28.4602 36.2582 27.7926 36.6161C27.125 36.9769 26.3153 37.1573 25.3636 37.1573ZM25.3636 35.2866C25.9801 35.2866 26.5 35.1942 26.9233 35.0096C27.3466 34.8278 27.6676 34.5707 27.8864 34.2383C28.1051 33.9059 28.2145 33.5167 28.2145 33.0707C28.2145 32.6246 28.1051 32.2354 27.8864 31.9031C27.6676 31.5707 27.3466 31.3121 26.9233 31.1275C26.5 30.9457 25.9801 30.8548 25.3636 30.8548C24.7472 30.8548 24.2273 30.9457 23.804 31.1275C23.3807 31.3121 23.0597 31.5707 22.8409 31.9031C22.6222 32.2354 22.5128 32.6246 22.5128 33.0707C22.5128 33.5167 22.6222 33.9059 22.8409 34.2383C23.0597 34.5707 23.3807 34.8278 23.804 35.0096C24.2273 35.1942 24.7472 35.2866 25.3636 35.2866ZM21 38.5241H29.7273V40.3693H22.5213V44.1108H21V38.5241ZM21 45.3327H29.7273V47.1779H22.5213V50.9194H21L21 45.3327Z" fill="white"/>
</svg>
